<mxfile host="app.diagrams.net" modified="2023-05-26T00:27:21.975Z" agent="Mozilla/5.0 (Windows NT 10.0; Win64; x64) AppleWebKit/537.36 (KHTML, like Gecko) Chrome/112.0.0.0 Safari/537.36 OPR/98.0.0.0" etag="PGdSw2Nr28ToKjywkFoi" version="21.3.4" type="onedrive">
  <diagram name="Page-1" id="dCpr83XrUGZV8dNtjmbN">
    <mxGraphModel grid="1" page="1" gridSize="10" guides="1" tooltips="1" connect="1" arrows="1" fold="1" pageScale="1" pageWidth="850" pageHeight="1100" math="0" shadow="0">
      <root>
        <mxCell id="0" />
        <mxCell id="1" parent="0" />
        <mxCell id="WQpViB29ZxAoq2dtifOn-1" value="IDLE" style="ellipse;whiteSpace=wrap;html=1;" vertex="1" parent="1">
          <mxGeometry x="360" y="160" width="120" height="80" as="geometry" />
        </mxCell>
        <mxCell id="WQpViB29ZxAoq2dtifOn-27" style="edgeStyle=orthogonalEdgeStyle;rounded=0;orthogonalLoop=1;jettySize=auto;html=1;" edge="1" parent="1" source="WQpViB29ZxAoq2dtifOn-2" target="WQpViB29ZxAoq2dtifOn-1">
          <mxGeometry relative="1" as="geometry" />
        </mxCell>
        <mxCell id="WQpViB29ZxAoq2dtifOn-2" value="LIN Handler" style="ellipse;whiteSpace=wrap;html=1;" vertex="1" parent="1">
          <mxGeometry x="360" y="320" width="120" height="80" as="geometry" />
        </mxCell>
        <mxCell id="WQpViB29ZxAoq2dtifOn-17" style="edgeStyle=orthogonalEdgeStyle;rounded=0;orthogonalLoop=1;jettySize=auto;html=1;entryX=0;entryY=0.5;entryDx=0;entryDy=0;" edge="1" parent="1" source="WQpViB29ZxAoq2dtifOn-3" target="WQpViB29ZxAoq2dtifOn-2">
          <mxGeometry relative="1" as="geometry" />
        </mxCell>
        <mxCell id="WQpViB29ZxAoq2dtifOn-3" value="Interrupt Service&lt;br&gt;Routine&amp;nbsp;" style="ellipse;whiteSpace=wrap;html=1;" vertex="1" parent="1">
          <mxGeometry x="160" y="320" width="120" height="80" as="geometry" />
        </mxCell>
        <mxCell id="WQpViB29ZxAoq2dtifOn-5" value="Trigger Handler" style="ellipse;whiteSpace=wrap;html=1;" vertex="1" parent="1">
          <mxGeometry x="365" y="480" width="120" height="80" as="geometry" />
        </mxCell>
        <mxCell id="WQpViB29ZxAoq2dtifOn-7" value="" style="curved=1;endArrow=classic;html=1;rounded=0;entryX=0.5;entryY=0;entryDx=0;entryDy=0;exitX=0;exitY=0.5;exitDx=0;exitDy=0;" edge="1" parent="1" source="WQpViB29ZxAoq2dtifOn-1" target="WQpViB29ZxAoq2dtifOn-3">
          <mxGeometry width="50" height="50" relative="1" as="geometry">
            <mxPoint x="370" y="200" as="sourcePoint" />
            <mxPoint x="330" y="160" as="targetPoint" />
            <Array as="points">
              <mxPoint x="330" y="200" />
              <mxPoint x="280" y="220" />
              <mxPoint x="240" y="250" />
              <mxPoint x="220" y="290" />
            </Array>
          </mxGeometry>
        </mxCell>
        <mxCell id="WQpViB29ZxAoq2dtifOn-8" value="" style="curved=1;endArrow=classic;html=1;rounded=0;entryX=0;entryY=0.5;entryDx=0;entryDy=0;exitX=0.5;exitY=1;exitDx=0;exitDy=0;" edge="1" parent="1" source="WQpViB29ZxAoq2dtifOn-3" target="WQpViB29ZxAoq2dtifOn-5">
          <mxGeometry width="50" height="50" relative="1" as="geometry">
            <mxPoint x="284" y="390" as="sourcePoint" />
            <mxPoint x="180" y="487" as="targetPoint" />
            <Array as="points">
              <mxPoint x="240" y="500" />
            </Array>
          </mxGeometry>
        </mxCell>
        <mxCell id="WQpViB29ZxAoq2dtifOn-23" value="Data Handler" style="ellipse;whiteSpace=wrap;html=1;" vertex="1" parent="1">
          <mxGeometry x="560" y="320" width="120" height="80" as="geometry" />
        </mxCell>
        <mxCell id="WQpViB29ZxAoq2dtifOn-25" value="" style="curved=1;endArrow=classic;html=1;rounded=0;exitX=0;exitY=0;exitDx=0;exitDy=0;entryX=0.5;entryY=0;entryDx=0;entryDy=0;" edge="1" parent="1" source="WQpViB29ZxAoq2dtifOn-1" target="WQpViB29ZxAoq2dtifOn-1">
          <mxGeometry width="50" height="50" relative="1" as="geometry">
            <mxPoint x="80" y="390" as="sourcePoint" />
            <mxPoint x="130" y="340" as="targetPoint" />
            <Array as="points">
              <mxPoint x="360" y="160" />
              <mxPoint x="350" y="130" />
              <mxPoint x="390" y="110" />
              <mxPoint x="440" y="130" />
            </Array>
          </mxGeometry>
        </mxCell>
        <mxCell id="WQpViB29ZxAoq2dtifOn-28" value="" style="curved=1;endArrow=classic;html=1;rounded=0;" edge="1" parent="1" target="WQpViB29ZxAoq2dtifOn-23">
          <mxGeometry width="50" height="50" relative="1" as="geometry">
            <mxPoint x="485" y="520" as="sourcePoint" />
            <mxPoint x="535" y="470" as="targetPoint" />
            <Array as="points">
              <mxPoint x="535" y="520" />
              <mxPoint x="630" y="450" />
            </Array>
          </mxGeometry>
        </mxCell>
        <mxCell id="WQpViB29ZxAoq2dtifOn-30" value="" style="curved=1;endArrow=classic;html=1;rounded=0;" edge="1" parent="1" source="WQpViB29ZxAoq2dtifOn-2" target="WQpViB29ZxAoq2dtifOn-23">
          <mxGeometry width="50" height="50" relative="1" as="geometry">
            <mxPoint x="450" y="390" as="sourcePoint" />
            <mxPoint x="595" y="510" as="targetPoint" />
            <Array as="points">
              <mxPoint x="520" y="410" />
            </Array>
          </mxGeometry>
        </mxCell>
        <mxCell id="WQpViB29ZxAoq2dtifOn-31" value="" style="curved=1;endArrow=classic;html=1;rounded=0;exitX=0.075;exitY=0.263;exitDx=0;exitDy=0;exitPerimeter=0;" edge="1" parent="1" source="WQpViB29ZxAoq2dtifOn-23" target="WQpViB29ZxAoq2dtifOn-2">
          <mxGeometry width="50" height="50" relative="1" as="geometry">
            <mxPoint x="693" y="280" as="sourcePoint" />
            <mxPoint x="580" y="170" as="targetPoint" />
            <Array as="points">
              <mxPoint x="510" y="320" />
            </Array>
          </mxGeometry>
        </mxCell>
        <mxCell id="WQpViB29ZxAoq2dtifOn-32" value="" style="curved=1;endArrow=classic;html=1;rounded=0;" edge="1" parent="1" source="WQpViB29ZxAoq2dtifOn-23" target="WQpViB29ZxAoq2dtifOn-1">
          <mxGeometry width="50" height="50" relative="1" as="geometry">
            <mxPoint x="600" y="270" as="sourcePoint" />
            <mxPoint x="739" y="150" as="targetPoint" />
            <Array as="points">
              <mxPoint x="620" y="260" />
              <mxPoint x="540" y="200" />
            </Array>
          </mxGeometry>
        </mxCell>
      </root>
    </mxGraphModel>
  </diagram>
</mxfile>
